<svg width="30" height="19" viewBox="0 0 30 19" fill="none" xmlns="http://www.w3.org/2000/svg">
<path d="M0 10.25C0 4.72715 4.47715 0.25 10 0.25H30V9C30 14.5228 25.5228 19 20 19H0V10.25Z" fill="#29A569"/>
<path d="M4.79 13V5.9H9.21V7.28H6.24V8.74H8.61V10.12H6.24V11.62H9.21V13H4.79ZM14.1478 13.12C13.1345 13.12 12.2678 12.7633 11.5478 12.05C10.8345 11.33 10.4778 10.4633 10.4778 9.45C10.4778 8.43667 10.8345 7.57333 11.5478 6.86C12.2678 6.14 13.1345 5.78 14.1478 5.78C14.8545 5.78 15.5011 5.95333 16.0878 6.3C16.6745 6.64 17.1211 7.09667 17.4278 7.67L16.1678 8.37C15.7011 7.57667 15.0278 7.18 14.1478 7.18C13.5345 7.18 13.0111 7.40333 12.5778 7.85C12.1511 8.29 11.9378 8.82333 11.9378 9.45C11.9378 10.0767 12.1511 10.6133 12.5778 11.06C13.0111 11.5 13.5345 11.72 14.1478 11.72C15.0278 11.72 15.7011 11.3233 16.1678 10.53L17.4278 11.23C17.1211 11.81 16.6778 12.27 16.0978 12.61C15.5178 12.95 14.8678 13.12 14.1478 13.12ZM20.7071 11.06C21.1404 11.5 21.6638 11.72 22.2771 11.72C22.8904 11.72 23.4104 11.5 23.8371 11.06C24.2704 10.6133 24.4871 10.0767 24.4871 9.45C24.4871 8.82333 24.2704 8.29 23.8371 7.85C23.4104 7.40333 22.8904 7.18 22.2771 7.18C21.6638 7.18 21.1404 7.40333 20.7071 7.85C20.2804 8.29 20.0671 8.82333 20.0671 9.45C20.0671 10.0767 20.2804 10.6133 20.7071 11.06ZM24.8671 12.05C24.1538 12.7633 23.2904 13.12 22.2771 13.12C21.2638 13.12 20.3971 12.7633 19.6771 12.05C18.9638 11.33 18.6071 10.4633 18.6071 9.45C18.6071 8.43667 18.9638 7.57333 19.6771 6.86C20.3971 6.14 21.2638 5.78 22.2771 5.78C23.2904 5.78 24.1538 6.14 24.8671 6.86C25.5871 7.57333 25.9471 8.43667 25.9471 9.45C25.9471 10.4633 25.5871 11.33 24.8671 12.05Z" fill="white"/>
</svg>
