<svg width="92" height="48" viewBox="0 0 92 48" fill="none" xmlns="http://www.w3.org/2000/svg">
<path d="M5.39062 9.5625H10.6641L17.5 29.8945L24.3164 9.5625H29.5898L19.6289 38H15.3516L5.39062 9.5625ZM2.34375 9.5625H7.71484L8.71094 30.6367V38H2.34375V9.5625ZM27.2656 9.5625H32.6562V38H26.2695V30.6367L27.2656 9.5625ZM44.1602 9.5625V38H37.8125V9.5625H44.1602ZM67.8516 33.0781V38H53.4961V33.0781H67.8516ZM55.6641 9.5625V38H49.2969V9.5625H55.6641ZM90.3125 33.0781V38H75.1758V33.0781H90.3125ZM77.3438 9.5625V38H70.9766V9.5625H77.3438ZM88.3594 21.0078V25.7734H75.1758V21.0078H88.3594ZM90.332 9.5625V14.5039H75.1758V9.5625H90.332Z" fill="#29A569"/>
<circle cx="41" cy="4" r="4" fill="#29A569"/>
</svg>
