<svg width="78" height="84" viewBox="0 0 78 84" fill="none" xmlns="http://www.w3.org/2000/svg">
<circle cx="38.9995" cy="38.9998" r="36" fill="white" stroke="#29A569" stroke-width="6"/>
<path d="M20.7994 49.3998H27.8704V53.703C27.8704 54.2553 27.4227 54.703 26.8704 54.703H21.7994C21.2472 54.703 20.7994 54.2553 20.7994 53.703V49.3998Z" fill="#181818"/>
<path d="M49.3994 49.3998H56.4704V53.703C56.4704 54.2553 56.0227 54.703 55.4704 54.703H50.3994C49.8472 54.703 49.3994 54.2553 49.3994 53.703V49.3998Z" fill="#181818"/>
<rect x="18.1995" y="41.5998" width="41.6" height="7.8" fill="#29A569"/>
<path d="M24.6994 23.3997L28.5994 23.3997L22.0994 41.5998L18.1994 41.5998L24.6994 23.3997Z" fill="#29A569"/>
<path d="M53.2995 23.3998L49.3995 23.3997L55.8995 41.5997L59.7995 41.5997L53.2995 23.3998Z" fill="#29A569"/>
<rect x="25.9995" y="23.3998" width="26" height="2.6" fill="#29A569"/>
<rect x="20.7994" y="36.3998" width="36.4" height="5.2" fill="#29A569"/>
<path d="M23.3995 40.2998L25.9995 41.5998H31.1995V44.1998H23.3995V40.2998Z" fill="white"/>
<path d="M54.5995 40.2998L51.9995 41.5998H46.7995V44.1998H54.5995V40.2998Z" fill="white"/>
<path d="M38.9995 83.1998L45.9277 75.6998H32.0712L38.9995 83.1998Z" fill="#29A569"/>
</svg>
