<svg width="94" height="101" viewBox="0 0 94 101" fill="none" xmlns="http://www.w3.org/2000/svg">
<circle cx="47" cy="47" r="47" fill="#29A569"/>
<path d="M25.0667 59.5333H33.5881V64.9244C33.5881 65.4767 33.1404 65.9244 32.5881 65.9244H26.0667C25.5144 65.9244 25.0667 65.4767 25.0667 64.9244V59.5333Z" fill="#181818"/>
<path d="M59.5333 59.5333H68.0548V64.9244C68.0548 65.4767 67.607 65.9244 67.0548 65.9244H60.5333C59.981 65.9244 59.5333 65.4767 59.5333 64.9244V59.5333Z" fill="#181818"/>
<rect x="21.9333" y="50.1333" width="50.1333" height="9.4" fill="white"/>
<path d="M29.7666 28.1999L34.4667 28.1998L26.6333 50.1332L21.9333 50.1332L29.7666 28.1999Z" fill="white"/>
<path d="M64.2334 28.1999L59.5333 28.1999L67.3667 50.1332L72.0667 50.1332L64.2334 28.1999Z" fill="white"/>
<rect x="31.3333" y="28.2" width="31.3333" height="3.13333" fill="white"/>
<rect x="25.0667" y="43.8667" width="43.8667" height="6.26667" fill="white"/>
<path d="M28.2 48.5667L31.3333 50.1333H37.6V53.2667H28.2V48.5667Z" fill="#181818"/>
<path d="M65.8 48.5667L62.6667 50.1333H56.4V53.2667H65.8V48.5667Z" fill="#181818"/>
<path d="M47 100.267L55.3494 91.2282H38.6506L47 100.267Z" fill="#2EB875"/>
<path d="M33.141 31.3336H60.859L65.0769 43.9874H28.9231L33.141 31.3336Z" fill="#181818"/>
</svg>
